<?xml version="1.0" standalone="no"?>
<!DOCTYPE svg PUBLIC "-//W3C//DTD SVG 1.1//EN" "http://www.w3.org/Graphics/SVG/1.1/DTD/svg11.dtd">
<svg width="100%" height="100%" viewBox="0 0 256 256" version="1.1" xmlns="http://www.w3.org/2000/svg" xmlns:xlink="http://www.w3.org/1999/xlink" xml:space="preserve" style="fill-rule:evenodd;clip-rule:evenodd;stroke-linejoin:round;stroke-miterlimit:1.41421;">
    <g transform="matrix(0.904594,0,0,0.914286,16.2827,9.14286)">
        <g id="Ebene1">
            <rect x="-18" y="-10" width="283" height="280" style="fill:rgb(103,177,183);"/>
        </g>
    </g>
    <g transform="matrix(1,0,0,1,0,10)">
        <path d="M125,75L110,55L112.684,39.69L145,30L128,200" style="fill:rgb(119,119,119);"/>
    </g>
    <g transform="matrix(1.00474,0,0,1.00221,-1.21375,-0.565724)">
        <path d="M173.784,256L128.11,215.09C128.11,215.09 109.9,45.076 146.519,36.485C147.746,36.197 234.182,109.649 256,127.858L256,256L173.784,256Z" style="fill:rgb(119,119,119);"/>
    </g>
    <g transform="matrix(0.247633,0,0,0.247633,-32.3575,29.5415)">
        <g transform="matrix(62.5833,0,0,62.5833,-37536.3,-23838.3)">
            <path d="M610,381C611.104,381 612,381.896 612,383C612,384.104 611.104,385 610,385C608.896,385 608,384.104 608,383C608,381.896 608.896,381 610,381ZM610,382C610.552,382 611,382.448 611,383C611,383.552 610.552,384 610,384C609.448,384 609,383.552 609,383C609,382.448 609.448,382 610,382Z" style="fill:rgb(120,203,254);"/>
        </g>
        <g transform="matrix(41.7222,0,0,41.7222,-24811.1,-15806.7)">
            <path d="M611,385C611,384.448 610.552,384 610,384C609.448,384 609,384.448 609,385L609,396C609,396.552 609.448,397 610,397C610.552,397 611,396.552 611,396L611,385Z" style="fill:rgb(120,203,254);"/>
        </g>
        <g transform="matrix(41.7222,0,0,41.7222,-24811.1,-15890.2)">
            <path d="M609,398C609,398 601.395,395.858 602,391C605.797,395.52 609,393.655 609,396C609,398.345 609,398 609,398Z" style="fill:rgb(120,203,254);"/>
        </g>
        <g transform="matrix(-41.7222,0,0,41.7222,26090.1,-15890.2)">
            <path d="M609,398C609,398 601.395,395.858 602,391C605.797,395.52 609,393.528 609,396C609,398.472 609,398 609,398Z" style="fill:rgb(120,203,254);"/>
        </g>
        <g transform="matrix(39.7946,12.5352,-12.5352,39.7946,-18153.6,-22722.5)">
            <path d="M603.724,390L605.483,393L601.966,393L603.724,390Z" style="fill:rgb(120,203,254);"/>
        </g>
        <g transform="matrix(39.7912,-12.5461,12.5461,39.7912,-28619.6,-7578.94)">
            <path d="M603.724,390L605.483,393L601.966,393L603.724,390Z" style="fill:rgb(120,203,254);"/>
        </g>
    </g>
    <g transform="matrix(0.247633,0,0,0.247633,-30.8575,28.5142)">
        <g transform="matrix(62.5833,0,0,62.5833,-37536.3,-23838.3)">
            <path d="M610,381C611.104,381 612,381.896 612,383C612,384.104 611.104,385 610,385C608.896,385 608,384.104 608,383C608,381.896 608.896,381 610,381ZM610,382C610.552,382 611,382.448 611,383C611,383.552 610.552,384 610,384C609.448,384 609,383.552 609,383C609,382.448 609.448,382 610,382Z" style="fill:rgb(51,51,168);"/>
        </g>
        <g transform="matrix(41.7222,0,0,41.7222,-24811.1,-15806.7)">
            <path d="M611,385C611,384.448 610.552,384 610,384C609.448,384 609,384.448 609,385L609,396C609,396.552 609.448,397 610,397C610.552,397 611,396.552 611,396L611,385Z" style="fill:rgb(51,51,168);"/>
        </g>
        <g transform="matrix(41.7222,0,0,41.7222,-24811.1,-15890.2)">
            <path d="M609,398C609,398 601.395,395.858 602,391C605.797,395.52 609,393.655 609,396C609,398.345 609,398 609,398Z" style="fill:rgb(51,51,168);"/>
        </g>
        <g transform="matrix(-41.7222,0,0,41.7222,26090.1,-15890.2)">
            <path d="M609,398C609,398 601.395,395.858 602,391C605.797,395.52 609,393.528 609,396C609,398.472 609,398 609,398Z" style="fill:rgb(51,51,168);"/>
        </g>
        <g transform="matrix(39.7946,12.5352,-12.5352,39.7946,-18153.6,-22722.5)">
            <path d="M603.724,390L605.483,393L601.966,393L603.724,390Z" style="fill:rgb(51,51,168);"/>
        </g>
        <g transform="matrix(39.7912,-12.5461,12.5461,39.7912,-28619.6,-7578.94)">
            <path d="M603.724,390L605.483,393L601.966,393L603.724,390Z" style="fill:rgb(51,51,168);"/>
        </g>
    </g>
</svg>
