<svg xmlns="http://www.w3.org/2000/svg" viewBox="0 0 20 20" fill-rule="evenodd" clip-rule="evenodd" stroke-linejoin="round" stroke-miterlimit="1.414"><path d="M14 7.5c0-.276-.224-.5-.5-.5h-7c-.276 0-.5.224-.5.5v1c0 .276.224.5.5.5h7c.276 0 .5-.224.5-.5v-1z" fill="#555d66"/><g fill="#555d66"><path d="M10 1c1.656 0 3 1.344 3 3s-1.344 3-3 3-3-1.344-3-3 1.344-3 3-3zm0 1.5c.828 0 1.5.672 1.5 1.5s-.672 1.5-1.5 1.5S8.5 4.828 8.5 4s.672-1.5 1.5-1.5z"/><path d="M11 7c0-.552-.448-1-1-1s-1 .448-1 1v11c0 .552.448 1 1 1s1-.448 1-1V7zM9 18s-7.605-2.142-7-7c3.797 4.52 7 2.655 7 5v2zM11 18s7.605-2.142 7-7c-3.797 4.52-7 2.528-7 5v2z"/><path d="M18.224 9.61L19 13l-3.355-1.057 2.58-2.333zM1.775 9.61l2.58 2.332L1 13l.775-3.39z"/></g></svg>
