<?xml version="1.0" standalone="no"?><!DOCTYPE svg PUBLIC "-//W3C//DTD SVG 1.1//EN" "http://www.w3.org/Graphics/SVG/1.1/DTD/svg11.dtd"><svg width="100%" height="100%" viewBox="0 0 18 18" version="1.1" xmlns="http://www.w3.org/2000/svg" xmlns:xlink="http://www.w3.org/1999/xlink" xml:space="preserve" style="fill-rule:evenodd;clip-rule:evenodd;stroke-linejoin:round;stroke-miterlimit:1.41421;"><g id="Ebene1"><path d="M9,0c1.656,0 3,1.344 3,3c0,1.656 -1.344,3 -3,3c-1.656,0 -3,-1.344 -3,-3c0,-1.656 1.344,-3 3,-3ZM9,1.5c0.828,0 1.5,0.672 1.5,1.5c0,0.828 -0.672,1.5 -1.5,1.5c-0.828,0 -1.5,-0.672 -1.5,-1.5c0,-0.828 0.672,-1.5 1.5,-1.5Z" style="fill:#777;"/><path d="M10,6c0,-0.552 -0.448,-1 -1,-1c-0.552,0 -1,0.448 -1,1l0,11c0,0.552 0.448,1 1,1c0.552,0 1,-0.448 1,-1l0,-11Z" style="fill:#777;"/><path d="M8,17c0,0 -7.605,-2.142 -7,-7c3.797,4.52 7,2.655 7,5c0,2.345 0,2 0,2Z" style="fill:#777;"/><path d="M10,17c0,0 7.605,-2.142 7,-7c-3.797,4.52 -7,2.528 -7,5c0,2.472 0,2 0,2Z" style="fill:#777;"/><path d="M17.224,8.61l0.776,3.39l-3.355,-1.057l2.579,-2.333Z" style="fill:#777;"/><path d="M0.775,8.61l2.579,2.332l-3.354,1.058l0.775,-3.39Z" style="fill:#777;"/><path d="M12,6.5c0,-0.276 -0.224,-0.5 -0.5,-0.5l-5,0c-0.276,0 -0.5,0.224 -0.5,0.5l0,1c0,0.276 0.224,0.5 0.5,0.5l5,0c0.276,0 0.5,-0.224 0.5,-0.5l0,-1Z" style="fill:#777;"/></g></svg>