<?xml version="1.0" standalone="no"?><!DOCTYPE svg PUBLIC "-//W3C//DTD SVG 1.1//EN" "http://www.w3.org/Graphics/SVG/1.1/DTD/svg11.dtd"><svg width="100%" height="100%" viewBox="0 0 20 20" version="1.1" xmlns="http://www.w3.org/2000/svg" xmlns:xlink="http://www.w3.org/1999/xlink" xml:space="preserve" style="fill-rule:evenodd;clip-rule:evenodd;stroke-linejoin:round;stroke-miterlimit:1.41421;"><g id="Ebene2"><g><path d="M12.692,10.354c0.412,-0.713 0.167,-1.626 -0.546,-2.038l-0.015,-0.008c-0.713,-0.412 -1.625,-0.167 -2.037,0.546l-4.009,6.943c-0.411,0.713 -0.167,1.626 0.546,2.037l0.015,0.009c0.713,0.411 1.626,0.167 2.038,-0.546l4.008,-6.943Z" style="fill:#777;"/><path d="M1.706,9.382c-1.064,1.844 1.37,5.245 5.433,7.59c4.063,2.346 8.225,2.754 9.29,0.91c-2.037,-0.439 -5.004,-1.552 -7.94,-3.248c-2.937,-1.695 -5.385,-3.707 -6.783,-5.252Z" style="fill:#777;"/><path d="M15.639,2.25c1.912,1.104 2.568,3.552 1.464,5.464c-1.104,1.912 -3.552,2.568 -5.464,1.464c-1.912,-1.104 -2.568,-3.552 -1.464,-5.464c1.104,-1.912 3.552,-2.568 5.464,-1.464ZM14.639,3.982c0.956,0.552 1.284,1.776 0.732,2.732c-0.552,0.956 -1.776,1.284 -2.732,0.732c-0.956,-0.552 -1.284,-1.776 -0.732,-2.732c0.552,-0.956 1.776,-1.284 2.732,-0.732Z" style="fill:#777;"/><path d="M13.438,9.062l-2.598,-1.5l-1.5,2.598l2.598,1.5l1.5,-2.598Z" style="fill:#777;"/></g></g></svg>